<svg width="22" height="24" fill="none" xmlns="http://www.w3.org/2000/svg"><path d="M21.515 6.018a6.038 6.038 0 0 1-3.648-1.22 6.052 6.052 0 0 1-2.412-4.78h-3.913V10.71l-.004 5.856A3.541 3.541 0 0 1 7.79 20.1a3.527 3.527 0 0 1-1.62-.497 3.541 3.541 0 0 1-1.732-2.984 3.544 3.544 0 0 1 4.666-3.414V9.233a7.698 7.698 0 0 0-1.128-.084c-2.166 0-4.19.9-5.638 2.521a7.34 7.34 0 0 0-1.852 4.428 7.33 7.33 0 0 0 2.184 5.71 7.503 7.503 0 0 0 5.306 2.172 7.69 7.69 0 0 0 1.128-.082 7.477 7.477 0 0 0 4.177-2.09 7.325 7.325 0 0 0 2.198-5.212l-.02-8.745a9.89 9.89 0 0 0 6.066 2.062V6.016c.001.001-.01.001-.01.001Z" fill="#000"/></svg>